<?xml version="1.0" encoding="utf-8"?>
<!-- Generator: Adobe Illustrator 26.3.1, SVG Export Plug-In . SVG Version: 6.00 Build 0)  -->
<svg version="1.1" id="Layer_1" xmlns="http://www.w3.org/2000/svg" xmlns:xlink="http://www.w3.org/1999/xlink" x="0px" y="0px"
	 viewBox="0 0 30.3 25.6" style="enable-background:new 0 0 30.3 25.6;" xml:space="preserve">
<style type="text/css">
	.st0{fill:#016699;}
</style>
<path class="st0" d="M11.4,11.5H4.9c0-5,0.1-5.1,0.8-6c0.7-0.8,3.9-0.6,4.1-0.9S10,2.1,9.7,1.8C9.4,1.6,5.1,1.6,3.6,3.4
	C2.3,5,1.9,5.9,1.9,12.3c0,0.5,0,1,0,1.6c0,0.1,0,0.1,0,0.2V21c0,1.4,1.1,2.5,2.5,2.5h6.9c1.4,0,2.5-1.1,2.5-2.5v-7
	C14,12.6,12.8,11.5,11.4,11.5z"/>
<path class="st0" d="M26.2,11.5h-6.4c0-5,0.1-5.1,0.8-6c0.7-0.8,3.9-0.6,4.1-0.9s0.2-2.5-0.1-2.8c-0.3-0.2-4.6-0.2-6.1,1.6
	c-1.3,1.6-1.7,2.5-1.7,8.9c0,0.5,0,1,0,1.6c0,0.1,0,0.1,0,0.2V21c0,1.4,1.1,2.5,2.5,2.5h6.9c1.4,0,2.5-1.1,2.5-2.5v-7
	C28.7,12.6,27.6,11.5,26.2,11.5z"/>
</svg>
