<?xml version="1.0" encoding="utf-8"?>
<!-- Generator: Adobe Illustrator 26.2.1, SVG Export Plug-In . SVG Version: 6.00 Build 0)  -->
<svg version="1.1" id="Layer_1" xmlns="http://www.w3.org/2000/svg" xmlns:xlink="http://www.w3.org/1999/xlink" x="0px" y="0px"
	 viewBox="0 0 120 50" style="enable-background:new 0 0 120 50;" xml:space="preserve">
<style type="text/css">
	.st0{fill:#016699;}
	.st1{fill:#CD6632;}
	.st2{fill:#333333;}
</style>
<g>
	<g>
		<g>
			<g>
				<g>
					<circle class="st0" cx="89.56" cy="25.11" r="6.41"/>
				</g>
				<g>
					<path class="st0" d="M89.57,32.02c-0.4,0-0.81-0.04-1.21-0.11c-1.82-0.32-3.4-1.33-4.46-2.84c-1.06-1.51-1.46-3.34-1.14-5.16
						c0.32-1.82,1.33-3.4,2.84-4.46c1.51-1.06,3.34-1.47,5.16-1.14c1.82,0.32,3.4,1.33,4.46,2.84c1.06,1.51,1.46,3.34,1.14,5.16
						c-0.32,1.82-1.33,3.4-2.84,4.46C92.34,31.59,90.98,32.02,89.57,32.02z M89.55,19.21c-2.81,0-5.31,2.02-5.81,4.88
						c-0.27,1.55,0.07,3.12,0.98,4.41c0.9,1.29,2.26,2.16,3.81,2.43c3.2,0.56,6.28-1.58,6.84-4.79l0,0
						c0.27-1.55-0.07-3.12-0.98-4.41c-0.9-1.29-2.26-2.15-3.81-2.43C90.24,19.24,89.89,19.21,89.55,19.21z"/>
				</g>
			</g>
			<g>
				<g>
					<line class="st0" x1="89.48" y1="25.11" x2="76.88" y2="11.07"/>
				</g>
				<g>
					
						<rect x="82.68" y="8.65" transform="matrix(0.7443 -0.6678 0.6678 0.7443 9.1873 60.1769)" class="st0" width="1" height="18.87"/>
				</g>
			</g>
			<g>
				<g>
					<line class="st0" x1="89.56" y1="16.17" x2="89.56" y2="25.11"/>
				</g>
				<g>
					<rect x="89.06" y="16.17" class="st0" width="1" height="8.94"/>
				</g>
			</g>
			<g>
				<g>
					<line class="st0" x1="99.87" y1="17.25" x2="89.56" y2="25.11"/>
				</g>
				<g>
					
						<rect x="88.23" y="20.68" transform="matrix(0.7955 -0.6059 0.6059 0.7955 6.5314 61.7204)" class="st0" width="12.97" height="1"/>
				</g>
			</g>
			<g>
				<g>
					<line class="st0" x1="95.64" y1="34.25" x2="89.56" y2="25.11"/>
				</g>
				<g>
					
						<rect x="92.1" y="24.2" transform="matrix(0.8325 -0.554 0.554 0.8325 -0.9361 56.2652)" class="st0" width="1" height="10.97"/>
				</g>
			</g>
			<g>
				<g>
					<line class="st0" x1="102.33" y1="27.67" x2="91.21" y2="25.41"/>
				</g>
				<g>
					
						<rect x="96.27" y="20.86" transform="matrix(0.1993 -0.9799 0.9799 0.1993 51.4808 116.0782)" class="st0" width="1" height="11.35"/>
				</g>
			</g>
			<g>
				<g>
					<path class="st0" d="M74.81,12.36c-0.23,0-0.46-0.02-0.69-0.07c-0.94-0.18-1.76-0.72-2.29-1.52c-0.54-0.8-0.73-1.75-0.55-2.7
						c0.18-0.94,0.72-1.76,1.52-2.3c0.79-0.54,1.75-0.73,2.7-0.55c1.95,0.38,3.22,2.27,2.84,4.21l0,0
						C78.01,11.16,76.5,12.36,74.81,12.36z M74.8,6.17c-0.51,0-1.01,0.15-1.45,0.45c-0.58,0.39-0.96,0.98-1.1,1.66
						c-0.13,0.68,0.01,1.37,0.4,1.95c0.39,0.57,0.98,0.96,1.66,1.1c1.4,0.27,2.77-0.65,3.04-2.05l0,0c0.27-1.4-0.65-2.77-2.05-3.04
						C75.14,6.18,74.97,6.17,74.8,6.17z"/>
				</g>
			</g>
			<g>
				<g>
					<path class="st0" d="M89.56,16.57c-0.21,0-0.41-0.02-0.62-0.05c-0.92-0.16-1.73-0.68-2.27-1.45c-0.54-0.77-0.75-1.7-0.58-2.63
						c0.34-1.91,2.16-3.19,4.08-2.85c1.91,0.34,3.19,2.17,2.85,4.08l0,0c-0.16,0.93-0.68,1.73-1.45,2.27
						C90.98,16.35,90.28,16.57,89.56,16.57z M89.56,10.54c-1.2,0-2.26,0.86-2.48,2.08c-0.12,0.66,0.03,1.33,0.42,1.88
						s0.96,0.92,1.62,1.04c0.66,0.12,1.33-0.03,1.88-0.42c0.55-0.39,0.92-0.96,1.04-1.62l0,0c0.24-1.37-0.68-2.68-2.04-2.92
						C89.85,10.55,89.7,10.54,89.56,10.54z"/>
				</g>
			</g>
			<g>
				<g>
					<path class="st0" d="M102.4,19.1c-0.19,0-0.38-0.02-0.57-0.05c-0.85-0.15-1.6-0.62-2.1-1.34s-0.69-1.57-0.54-2.43
						c0.31-1.77,2-2.95,3.77-2.64c0.85,0.15,1.6,0.62,2.1,1.34s0.69,1.57,0.54,2.43c-0.15,0.85-0.62,1.6-1.34,2.1
						C103.7,18.9,103.06,19.1,102.4,19.1z M102.39,13.6c-1.07,0-2.02,0.77-2.22,1.86c-0.1,0.59,0.03,1.19,0.37,1.68
						c0.34,0.49,0.86,0.82,1.45,0.93c0.59,0.1,1.19-0.03,1.68-0.37c0.49-0.35,0.82-0.86,0.93-1.45c0.21-1.22-0.6-2.39-1.83-2.61
						C102.65,13.61,102.52,13.6,102.39,13.6z"/>
				</g>
			</g>
			<g>
				<g>
					<path class="st0" d="M97.94,40.38c-0.21,0-0.43-0.02-0.64-0.06c-0.97-0.17-1.82-0.71-2.39-1.52c-0.57-0.81-0.78-1.79-0.61-2.77
						c0.35-2.01,2.27-3.36,4.29-3c0.97,0.17,1.82,0.71,2.39,1.52c0.57,0.81,0.79,1.79,0.61,2.77l0,0
						C101.27,39.11,99.7,40.38,97.94,40.38z M97.94,33.97c-1.29,0-2.43,0.92-2.66,2.23c-0.26,1.47,0.72,2.87,2.19,3.13
						c1.47,0.25,2.87-0.73,3.13-2.19l0,0c0.12-0.71-0.03-1.43-0.45-2.02s-1.03-0.99-1.75-1.11C98.25,33.98,98.09,33.97,97.94,33.97z
						"/>
				</g>
			</g>
			<g>
				<g>
					<path class="st0" d="M106.57,33.2c-0.28,0-0.56-0.02-0.84-0.07c-1.26-0.22-2.36-0.92-3.09-1.97c-0.73-1.05-1.02-2.32-0.79-3.58
						c0.22-1.26,0.92-2.36,1.97-3.09c1.05-0.73,2.32-1.02,3.58-0.79c1.26,0.22,2.36,0.92,3.09,1.97c0.73,1.05,1.02,2.32,0.79,3.58
						l0,0l0,0c-0.22,1.26-0.92,2.36-1.97,3.09C108.49,32.91,107.54,33.2,106.57,33.2z M106.55,24.62c-0.77,0-1.52,0.24-2.17,0.69
						c-0.83,0.58-1.38,1.45-1.56,2.45s0.05,2,0.63,2.83c0.58,0.83,1.45,1.38,2.45,1.56c1,0.18,2-0.05,2.83-0.63
						c0.83-0.58,1.38-1.45,1.56-2.45l0,0c0.18-1-0.05-2-0.63-2.83c-0.58-0.83-1.45-1.38-2.45-1.56
						C106.99,24.64,106.77,24.62,106.55,24.62z"/>
				</g>
			</g>
			<g>
				<g>
					<path class="st0" d="M86.79,44.83c-0.16,0-0.32-0.01-0.48-0.04c-0.78-0.14-1.45-0.59-1.89-1.28c-0.43-0.68-0.59-1.5-0.45-2.31
						c0.14-0.82,0.57-1.54,1.21-2.02c0.65-0.5,1.44-0.69,2.22-0.56c1.59,0.28,2.64,1.89,2.34,3.59l0,0
						c-0.14,0.82-0.57,1.54-1.21,2.02C88.01,44.63,87.41,44.83,86.79,44.83z M86.91,39.58c-0.4,0-0.79,0.13-1.13,0.39
						c-0.44,0.33-0.73,0.83-0.83,1.4c-0.1,0.57,0.01,1.14,0.31,1.6c0.29,0.45,0.72,0.75,1.22,0.84c0.5,0.08,1.01-0.04,1.44-0.37
						c0.44-0.33,0.73-0.83,0.83-1.4l0,0c0.2-1.16-0.48-2.25-1.53-2.44C87.12,39.59,87.02,39.58,86.91,39.58z"/>
				</g>
			</g>
			<g>
				<g>
					<line class="st0" x1="87.23" y1="39.38" x2="89.56" y2="25.11"/>
				</g>
				<g>
					
						<rect x="81.17" y="31.75" transform="matrix(0.1603 -0.9871 0.9871 0.1603 42.3956 114.3305)" class="st0" width="14.46" height="1"/>
				</g>
			</g>
		</g>
		<g>
			<g>
				<path class="st1" d="M19.03,17.34v1.51h-3.92v10.96h-1.75V18.85H9.44v-1.51H19.03z"/>
			</g>
			<g>
				<path class="st1" d="M19.25,25.15c0-0.83,0.12-1.55,0.36-2.17c0.24-0.62,0.56-1.13,0.95-1.54c0.4-0.41,0.85-0.71,1.37-0.92
					c0.52-0.2,1.04-0.31,1.58-0.31c1.26,0,2.23,0.39,2.9,1.18c0.67,0.79,1.01,1.98,1.01,3.59c0,0.07,0,0.17,0,0.28
					c0,0.11-0.01,0.22-0.02,0.31h-6.41c0.07,0.97,0.35,1.71,0.85,2.21s1.26,0.76,2.3,0.76c0.59,0,1.08-0.05,1.48-0.15
					s0.71-0.2,0.91-0.3l0.23,1.4c-0.2,0.11-0.56,0.22-1.07,0.34c-0.51,0.12-1.09,0.18-1.74,0.18c-0.82,0-1.52-0.12-2.11-0.37
					c-0.59-0.25-1.08-0.58-1.47-1.02c-0.38-0.43-0.67-0.95-0.85-1.54C19.34,26.51,19.25,25.86,19.25,25.15z M25.67,24.23
					c0.01-0.76-0.18-1.38-0.57-1.86c-0.39-0.49-0.93-0.73-1.61-0.73c-0.38,0-0.72,0.08-1.02,0.23s-0.54,0.34-0.75,0.58
					s-0.36,0.52-0.48,0.83c-0.11,0.31-0.19,0.63-0.22,0.95H25.67z"/>
			</g>
			<g>
				<path class="st1" d="M33.9,30.03c-0.76,0-1.42-0.12-1.99-0.36c-0.57-0.24-1.05-0.58-1.44-1.01c-0.39-0.43-0.68-0.95-0.87-1.54
					c-0.19-0.59-0.29-1.25-0.29-1.97c0-0.72,0.1-1.38,0.31-1.98c0.21-0.6,0.51-1.12,0.89-1.56c0.38-0.44,0.85-0.78,1.41-1.03
					c0.56-0.25,1.18-0.37,1.86-0.37c0.42,0,0.84,0.04,1.26,0.11c0.42,0.07,0.82,0.19,1.21,0.34l-0.38,1.42
					c-0.25-0.12-0.54-0.22-0.87-0.29c-0.33-0.07-0.68-0.11-1.05-0.11c-0.94,0-1.65,0.29-2.15,0.88c-0.5,0.59-0.75,1.45-0.75,2.57
					c0,0.5,0.06,0.97,0.17,1.39c0.11,0.42,0.29,0.78,0.54,1.08c0.25,0.3,0.56,0.53,0.94,0.69c0.38,0.16,0.85,0.24,1.4,0.24
					c0.44,0,0.85-0.04,1.21-0.13c0.36-0.08,0.64-0.17,0.85-0.27l0.23,1.4c-0.1,0.06-0.23,0.12-0.41,0.17
					c-0.18,0.05-0.38,0.1-0.61,0.14s-0.47,0.08-0.73,0.11C34.39,30.01,34.14,30.03,33.9,30.03z"/>
			</g>
			<g>
				<path class="st1" d="M38.2,29.81V16.13l1.67-0.29v4.79c0.31-0.12,0.65-0.21,1-0.28s0.71-0.1,1.05-0.1
					c0.74,0,1.36,0.11,1.85,0.31c0.49,0.21,0.88,0.5,1.18,0.88c0.29,0.38,0.5,0.83,0.62,1.36c0.12,0.53,0.18,1.11,0.18,1.75v5.26
					h-1.67v-4.9c0-0.58-0.04-1.07-0.12-1.48c-0.08-0.41-0.21-0.74-0.39-0.99c-0.18-0.25-0.42-0.44-0.72-0.55
					c-0.3-0.11-0.67-0.17-1.12-0.17c-0.18,0-0.37,0.01-0.56,0.04c-0.19,0.02-0.38,0.05-0.55,0.08s-0.33,0.06-0.47,0.1
					c-0.14,0.04-0.24,0.07-0.3,0.09v7.78H38.2z"/>
			</g>
			<g>
				<path class="st2" d="M56.44,17.34h1.75v12.47h-1.75v-5.76h-6.1v5.76h-1.75V17.34h1.75v5.2h6.1V17.34z"/>
			</g>
			<g>
				<path class="st2" d="M68.62,29.54c-0.38,0.1-0.89,0.2-1.52,0.31c-0.63,0.11-1.36,0.16-2.19,0.16c-0.72,0-1.33-0.11-1.82-0.32
					c-0.49-0.21-0.89-0.51-1.19-0.89c-0.3-0.38-0.52-0.84-0.65-1.36c-0.13-0.52-0.2-1.1-0.2-1.74v-5.26h1.67v4.9
					c0,1.14,0.18,1.96,0.54,2.45c0.36,0.49,0.97,0.74,1.82,0.74c0.18,0,0.37-0.01,0.56-0.02s0.37-0.03,0.54-0.04
					c0.17-0.02,0.32-0.04,0.46-0.05c0.14-0.02,0.24-0.04,0.3-0.06v-7.9h1.67V29.54z"/>
			</g>
			<g>
				<path class="st2" d="M73.18,20.87c0.2-0.13,0.51-0.27,0.93-0.41s0.89-0.22,1.43-0.22c0.67,0,1.27,0.12,1.79,0.36
					c0.52,0.24,0.96,0.58,1.32,1.01s0.63,0.95,0.82,1.55c0.19,0.6,0.28,1.26,0.28,1.98c0,0.76-0.11,1.44-0.33,2.04
					c-0.22,0.61-0.54,1.12-0.94,1.54c-0.41,0.42-0.9,0.74-1.48,0.97c-0.58,0.23-1.22,0.34-1.94,0.34c-0.78,0-1.47-0.05-2.07-0.16
					c-0.6-0.11-1.09-0.22-1.48-0.32V16.13l1.67-0.29V20.87z M73.18,28.36c0.17,0.05,0.4,0.09,0.71,0.13
					c0.31,0.04,0.69,0.06,1.14,0.06c0.9,0,1.62-0.3,2.16-0.89S78,26.23,78,25.13c0-0.48-0.05-0.93-0.14-1.35S77.6,23,77.39,22.7
					c-0.22-0.31-0.5-0.55-0.84-0.72s-0.75-0.26-1.23-0.26c-0.46,0-0.88,0.08-1.26,0.23c-0.38,0.16-0.68,0.32-0.88,0.49V28.36z"/>
			</g>
		</g>
	</g>
	<g>
		<path class="st1" d="M68.63,38.67c-0.39,0-0.76-0.06-1.12-0.17s-0.71-0.29-1.03-0.53V36.6h0.67l0.14,1.01
			c0.19,0.12,0.4,0.21,0.62,0.27s0.46,0.1,0.72,0.1c0.29,0,0.54-0.04,0.75-0.13c0.2-0.09,0.36-0.21,0.47-0.37s0.16-0.34,0.16-0.55
			c0-0.2-0.05-0.37-0.14-0.52c-0.09-0.15-0.25-0.28-0.46-0.39c-0.22-0.11-0.51-0.21-0.88-0.3c-0.44-0.1-0.81-0.24-1.11-0.41
			c-0.3-0.17-0.53-0.38-0.69-0.62c-0.16-0.24-0.24-0.53-0.24-0.84c0-0.33,0.09-0.63,0.27-0.9c0.18-0.26,0.42-0.47,0.74-0.62
			s0.69-0.23,1.11-0.23c0.45,0,0.84,0.07,1.19,0.2c0.34,0.14,0.63,0.3,0.85,0.49v1.28h-0.67l-0.14-0.91
			c-0.13-0.11-0.3-0.19-0.49-0.26s-0.44-0.11-0.73-0.11c-0.25,0-0.46,0.04-0.65,0.13c-0.19,0.09-0.33,0.21-0.44,0.36
			c-0.11,0.16-0.16,0.34-0.16,0.55c0,0.18,0.05,0.35,0.14,0.48c0.09,0.14,0.25,0.26,0.47,0.36c0.22,0.1,0.5,0.2,0.86,0.29
			c0.67,0.17,1.18,0.41,1.53,0.74c0.35,0.33,0.52,0.73,0.52,1.21c0,0.34-0.09,0.65-0.28,0.91c-0.18,0.27-0.44,0.47-0.78,0.62
			C69.48,38.59,69.09,38.67,68.63,38.67z"/>
		<path class="st1" d="M73.34,38.58v-0.55l0.72-0.12v-1.65l-1.97-3.43l-0.53-0.08v-0.56h2.21v0.56l-0.73,0.08l1.36,2.51l0.09,0.17
			l0-0.01l0.09-0.16L76,32.82l-0.76-0.08v-0.56h2.16v0.56l-0.56,0.08l-1.93,3.36v1.72l0.72,0.12v0.55H73.34z"/>
		<path class="st1" d="M78.05,38.58v-0.55l0.72-0.12v-5.04l-0.72-0.12v-0.56h0.72h1.79c0.57,0,1.06,0.13,1.48,0.4
			c0.42,0.27,0.75,0.64,0.98,1.11c0.23,0.47,0.35,1.01,0.35,1.62v0.14c0,0.59-0.11,1.12-0.34,1.6c-0.23,0.47-0.55,0.85-0.96,1.12
			c-0.42,0.27-0.9,0.41-1.47,0.41H78.05z M79.63,37.9h0.92c0.4,0,0.75-0.11,1.04-0.33c0.29-0.22,0.51-0.52,0.67-0.89
			c0.16-0.37,0.24-0.78,0.24-1.23V35.3c0-0.47-0.08-0.88-0.24-1.25c-0.16-0.37-0.38-0.66-0.67-0.87s-0.64-0.32-1.04-0.32h-0.92V37.9
			z"/>
	</g>
</g>
</svg>
